<svg width="20" height="27" viewBox="0 0 20 27" fill="none" xmlns="http://www.w3.org/2000/svg">
<path d="M10 0.34375C11.2917 0.34375 12.5 0.59375 13.625 1.09375C14.7708 1.57292 15.7604 2.23958 16.5938 3.09375C17.4479 3.92708 18.1146 4.90625 18.5938 6.03125C19.0938 7.15625 19.3438 8.36458 19.3438 9.65625C19.3438 11.4062 18.8542 13.3021 17.875 15.3438C16.8958 17.3646 15.8229 19.2396 14.6562 20.9688C13.4896 22.6979 12.4167 24.1354 11.4375 25.2812C10.4792 26.4271 10 27 10 27C10 27 9.51042 26.4271 8.53125 25.2812C7.57292 24.1354 6.51042 22.6979 5.34375 20.9688C4.17708 19.2396 3.10417 17.3646 2.125 15.3438C1.14583 13.3021 0.65625 11.4062 0.65625 9.65625C0.65625 8.36458 0.895833 7.15625 1.375 6.03125C1.875 4.90625 2.54167 3.92708 3.375 3.09375C4.22917 2.23958 5.21875 1.57292 6.34375 1.09375C7.48958 0.59375 8.70833 0.34375 10 0.34375ZM10 13.6562C11.1042 13.6562 12.0417 13.2708 12.8125 12.5C13.6042 11.7083 14 10.7604 14 9.65625C14 8.55208 13.6042 7.61458 12.8125 6.84375C12.0417 6.05208 11.1042 5.65625 10 5.65625C8.89583 5.65625 7.94792 6.05208 7.15625 6.84375C6.38542 7.61458 6 8.55208 6 9.65625C6 10.7604 6.38542 11.7083 7.15625 12.5C7.94792 13.2708 8.89583 13.6562 10 13.6562Z" fill="#3E42D1"/>
</svg>
