<svg width="14" height="17" viewBox="0 0 14 17" fill="none" xmlns="http://www.w3.org/2000/svg">
<path d="M9.5 0.339844L13.6602 4.51953H9.5V0.339844ZM8.66016 5.14453V5.33984H13.6602V16.1602C13.6602 16.3945 13.5755 16.5964 13.4062 16.7656C13.25 16.9219 13.0612 17 12.8398 17H1.16016C0.938802 17 0.74349 16.9219 0.574219 16.7656C0.417969 16.5964 0.339844 16.3945 0.339844 16.1602V1.16016C0.339844 0.938802 0.417969 0.75 0.574219 0.59375C0.74349 0.424479 0.938802 0.339844 1.16016 0.339844H8.66016V5.14453ZM9.14844 8.32812L6.16016 11.3164L4.85156 9.98828L3.66016 11.1602L6.16016 13.6602L10.3398 9.5L9.14844 8.32812Z" fill="#3E42D1"/>
</svg>
