<svg width="49" height="27" viewBox="0 0 49 27" fill="none" xmlns="http://www.w3.org/2000/svg">
<path d="M12.3879 13.3032C12.3879 13.0523 12.4335 12.8838 12.5272 12.7962C12.6174 12.7094 12.7841 12.6664 13.0239 12.6664C13.286 12.6664 13.4673 12.7102 13.5713 12.7962C13.6736 12.8838 13.726 13.0205 13.726 13.2052C13.726 13.6177 13.9022 13.9941 14.2579 14.3319C14.6103 14.6705 15.1474 14.838 15.8658 14.838C17.3225 14.838 18.0529 14.087 18.0529 12.5856V12.2754C18.0529 10.9477 17.3225 10.2842 15.8658 10.2842C15.5487 10.2842 15.3923 10.0934 15.3923 9.71273C15.3923 9.33203 15.5487 9.14125 15.8658 9.14125C16.4966 9.14125 16.9701 9.00031 17.2855 8.7193C17.6009 8.43742 17.759 7.92781 17.759 7.19133C17.759 5.92289 17.1497 5.28867 15.9311 5.28867C15.2342 5.28867 14.7409 5.44336 14.4539 5.75102C14.1634 6.05867 14.019 6.42305 14.019 6.84328C14.019 7.24375 13.8025 7.44312 13.3659 7.44312C13.072 7.44312 12.8795 7.39414 12.7867 7.29531C12.6947 7.1982 12.6475 7.01344 12.6475 6.74016C12.6475 6.46945 12.6999 6.18758 12.8039 5.89969C12.9061 5.61094 13.0729 5.32305 13.3006 5.0343C13.5309 4.74641 13.8764 4.50922 14.3379 4.32359C14.8019 4.13883 15.3425 4.04688 15.9629 4.04688C18.0409 4.04688 19.0816 5.01281 19.0816 6.94555C19.0816 7.62875 18.9604 8.20969 18.7224 8.68578C18.4826 9.16359 18.1621 9.49359 17.759 9.67836C18.8685 10.1252 19.4245 10.9898 19.4245 12.2745V12.5848C19.4245 13.7827 19.0971 14.6636 18.444 15.2291C17.7908 15.7945 16.9315 16.0773 15.8658 16.0773C14.7443 16.0773 13.8833 15.792 13.286 15.2213C12.687 14.6498 12.3879 14.0113 12.3879 13.3032Z" fill="white"/>
<path d="M21.2722 12.5195V7.60469C21.2722 6.37492 21.5961 5.4743 22.2441 4.90281C22.8912 4.33305 23.7592 4.04688 24.8472 4.04688C25.9351 4.04688 26.7842 4.32961 27.3943 4.89594C28.0045 5.46141 28.3079 6.1257 28.3079 6.88711C28.3079 7.29016 28.0956 7.49039 27.6711 7.49039C27.1924 7.49039 26.9535 7.31078 26.9535 6.95156C26.9535 6.45141 26.7498 6.04836 26.3416 5.74414C25.9325 5.43992 25.4238 5.28695 24.8154 5.28695C23.3673 5.28695 22.6446 6.05953 22.6446 7.60469V9.89062C23.1662 9.21601 23.9603 8.87828 25.0268 8.87828C27.2147 8.87828 28.3079 9.97742 28.3079 12.1766V12.5186C28.3079 13.7484 27.9907 14.649 27.3531 15.2213C26.7172 15.7928 25.8655 16.0781 24.799 16.0781C23.7325 16.0781 22.8783 15.7928 22.2364 15.2222C21.5927 14.6498 21.2722 13.7492 21.2722 12.5195ZM22.6446 12.602C22.6446 14.1583 23.3622 14.936 24.799 14.936C26.2247 14.936 26.938 14.1583 26.938 12.602V12.2565C26.938 10.7672 26.2247 10.0221 24.799 10.0221C23.3622 10.0221 22.6446 10.7182 22.6446 12.1087V12.602Z" fill="white"/>
<path d="M30.4348 12.5195V7.60469C30.4348 6.37492 30.7519 5.4743 31.3896 4.90281C32.0264 4.33305 32.8789 4.04688 33.9445 4.04688C35.0118 4.04688 35.8661 4.33305 36.5089 4.90367C37.15 5.47516 37.4705 6.37578 37.4705 7.60555V12.5203C37.4705 13.7501 37.15 14.6507 36.5089 15.223C35.8669 15.7928 35.0118 16.0781 33.9445 16.0781C32.8789 16.0781 32.0264 15.7928 31.3896 15.2222C30.7519 14.6498 30.4348 13.7492 30.4348 12.5195ZM31.8064 12.5195C31.8064 14.0655 32.5197 14.8372 33.9445 14.8372C34.6311 14.8372 35.1614 14.6438 35.5361 14.258C35.9133 13.8721 36.0998 13.292 36.0998 12.5195V7.60469C36.0998 6.83297 35.9133 6.25289 35.5361 5.86617C35.1614 5.48031 34.6311 5.28695 33.9445 5.28695C32.5197 5.28695 31.8064 6.05953 31.8064 7.60469V12.5195Z" fill="white"/>
<path d="M39.1085 0.609375C40.0702 0.609375 40.8281 1.36648 40.8281 2.32727C40.8281 3.28891 40.0702 4.04688 39.1085 4.04688C38.1477 4.04688 37.3906 3.28891 37.3906 2.32727C37.3906 1.36648 38.1477 0.609375 39.1085 0.609375ZM39.1085 3.1325C39.5537 3.1325 39.9138 2.77242 39.9138 2.32727C39.9138 1.88211 39.5537 1.52203 39.1085 1.52203C38.6634 1.52203 38.3033 1.88211 38.3033 2.32727C38.3033 2.77242 38.6634 3.1325 39.1085 3.1325Z" fill="white"/>
<path d="M15.6699 25.1832C15.6218 25.1832 15.5737 25.1789 15.5238 25.1703C14.2906 24.9598 13.0944 24.7037 11.9686 24.4106C11.5097 24.2903 11.2347 23.8211 11.3533 23.3622C11.4736 22.9024 11.9462 22.6291 12.4017 22.7469C13.4802 23.0279 14.6284 23.2728 15.8143 23.4765C16.2818 23.5564 16.5963 23.9998 16.5155 24.4682C16.4442 24.8876 16.0807 25.1832 15.6699 25.1832ZM8.79062 23.3622C8.68836 23.3622 8.58437 23.3441 8.48296 23.3055C7.24117 22.8294 6.11539 22.2957 5.13828 21.7191C4.72921 21.4784 4.59343 20.9508 4.83406 20.5426C5.07468 20.1326 5.60234 19.9977 6.01054 20.2384C6.90601 20.766 7.94414 21.2584 9.09828 21.7001C9.54171 21.8694 9.76257 22.3662 9.59242 22.8105C9.46179 23.1516 9.13609 23.3622 8.79062 23.3622ZM2.79906 19.6299C2.56015 19.6299 2.3221 19.5311 2.15195 19.336C1.11468 18.1492 0.588745 16.8816 0.588745 15.5668C0.588745 15.0916 0.972886 14.7074 1.44812 14.7074C1.92335 14.7074 2.3075 15.0907 2.3075 15.5659C2.3075 16.4519 2.69078 17.3397 3.44617 18.2042C3.75812 18.5617 3.72203 19.1048 3.36453 19.4168C3.2021 19.5603 3.00015 19.6299 2.79906 19.6299ZM2.80335 13.2173C2.60226 13.2173 2.40031 13.1476 2.23703 13.0041C1.88039 12.6922 1.84429 12.1491 2.1571 11.7916C2.90046 10.9425 3.90593 10.1407 5.14515 9.41109C5.55335 9.17132 6.08101 9.30538 6.32164 9.71531C6.56226 10.1244 6.42648 10.6512 6.01742 10.8918C4.93632 11.5286 4.07265 12.2126 3.4496 12.9242C3.28031 13.1184 3.04226 13.2173 2.80335 13.2173Z" fill="white"/>
<path d="M5.58168 11.0112C5.28692 11.0112 4.99989 10.8591 4.84004 10.5876C4.60028 10.1776 4.73692 9.65171 5.14512 9.41108C6.15918 8.81554 7.2695 8.29132 8.53879 7.81007C8.97965 7.63905 9.47895 7.86421 9.64653 8.3085C9.81496 8.75194 9.59239 9.24866 9.14809 9.41624C7.97075 9.86397 6.94551 10.3469 6.01567 10.8935C5.87989 10.9734 5.7295 11.0112 5.58168 11.0112Z" fill="white"/>
<path d="M30.9212 25.5321C30.5646 25.5321 30.2406 25.3095 30.1151 24.9684C29.9776 24.5945 30.1151 24.176 30.4477 23.956L36.7495 19.7855C37.144 19.5225 37.6776 19.6308 37.9406 20.0278C38.2027 20.4231 38.0944 20.9568 37.6983 21.2189L34.632 23.2479C38.0635 22.5991 41.6797 21.4741 44.4255 19.2664C45.5108 18.3941 47.227 16.6178 46.5326 14.5218C46.0488 13.0643 44.764 11.7941 42.6044 10.6383C42.1387 10.3891 41.6411 10.151 41.0825 9.90954C40.6468 9.72047 40.4474 9.2143 40.6348 8.77946C40.8247 8.34461 41.3257 8.14438 41.7648 8.33172C42.3655 8.59211 42.9052 8.85079 43.4131 9.12235C45.9809 10.4956 47.5347 12.0846 48.1629 13.9804C48.908 16.2311 47.9377 18.6459 45.5014 20.6053C41.3609 23.9337 35.5885 24.983 31.0226 25.5252C30.9891 25.5304 30.9556 25.5321 30.9212 25.5321Z" fill="white"/>
<path d="M39.0338 26.7533C38.9917 26.7533 38.9478 26.7498 38.9057 26.7438L30.7949 25.5227C30.3249 25.4513 30.0017 25.0139 30.0722 24.5447C30.1435 24.0755 30.5801 23.7609 31.0502 23.8219L39.161 25.0431C39.631 25.1144 39.9542 25.5519 39.8837 26.0211C39.8184 26.4473 39.4514 26.7533 39.0338 26.7533Z" fill="white"/>
</svg>
