<svg width="17" height="20" viewBox="0 0 17 20" fill="none" xmlns="http://www.w3.org/2000/svg">
<path d="M9.50781 6.99219V12.0078H11.5L8.5 15.9922L5.5 12.0078H7.49219V6.99219H9.50781ZM16.2109 4.29688C16.3047 4.39062 16.375 4.5 16.4219 4.625C16.4688 4.75 16.4922 4.875 16.4922 5V18.9922C16.4922 19.2734 16.3906 19.5156 16.1875 19.7188C16 19.9062 15.7734 20 15.5078 20H1.49219C1.22656 20 0.992188 19.9062 0.789062 19.7188C0.601562 19.5156 0.507812 19.2734 0.507812 18.9922V0.992188C0.507812 0.726562 0.601562 0.5 0.789062 0.3125C0.992188 0.109375 1.22656 0.0078125 1.49219 0.0078125H11.5C11.625 0.0078125 11.75 0.03125 11.875 0.078125C12 0.125 12.1094 0.195312 12.2031 0.289062L16.2109 4.29688ZM14.5 18.0078V6.00781H10.4922V2H2.5V18.0078H14.5Z" fill="white"/>
</svg>
