<svg width="21" height="20" viewBox="0 0 21 20" fill="none" xmlns="http://www.w3.org/2000/svg">
<path d="M15.4694 13.6155H14.4917L14.1452 13.2813C15.3999 11.826 16.0895 9.96804 16.0881 8.0465C16.0881 6.45554 15.6163 4.9003 14.7325 3.57747C13.8486 2.25463 12.5923 1.2236 11.1224 0.614763C9.65253 0.00592674 8.03514 -0.153372 6.47475 0.157009C4.91435 0.467391 3.48104 1.23351 2.35605 2.3585C1.23107 3.48348 0.46495 4.91679 0.154568 6.47719C-0.155814 8.03758 0.00348533 9.65497 0.612321 11.1248C1.22116 12.5947 2.25218 13.851 3.57502 14.7349C4.89786 15.6188 6.4531 16.0906 8.04406 16.0906C10.0365 16.0906 11.8681 15.3604 13.2789 14.1476L13.613 14.4941V15.4718L18.9757 19.9971L20.8197 18.1531L15.4694 13.6155ZM8.04406 13.6155C4.96257 13.6155 2.4751 11.128 2.4751 8.0465C2.4751 4.96501 4.96257 2.47754 8.04406 2.47754C11.1256 2.47754 13.613 4.96501 13.613 8.0465C13.613 11.128 11.1256 13.6155 8.04406 13.6155Z" fill="white"/>
</svg>
