<svg width="96" height="118" viewBox="0 0 96 118" fill="none" xmlns="http://www.w3.org/2000/svg">
<path d="M48 0L96 21.375V53.375C96 60.7083 94.7917 67.875 92.375 74.875C89.9583 81.875 86.5833 88.25 82.25 94C78 99.6667 72.9583 104.583 67.125 108.75C61.2917 112.833 54.9167 115.708 48 117.375C41.0833 115.708 34.7083 112.833 28.875 108.75C23.0417 104.583 17.9583 99.6667 13.625 94C9.375 88.25 6.04167 81.875 3.625 74.875C1.20833 67.875 0 60.7083 0 53.375V21.375L48 0ZM37.375 85.375L80 42.625L72.5 35.125L37.375 70.25L23.5 56.5L16 64L37.375 85.375Z" fill="#3E42D1"/>
</svg>
