<svg width="17" height="30" viewBox="0 0 17 30" fill="none" xmlns="http://www.w3.org/2000/svg">
<path d="M12.1135 14.9935L0.613369 26.4304C0.222807 26.8193 0.0228214 27.3081 0.0134106 27.8968C0.00447083 28.4851 0.204456 28.9828 0.613369 29.39C1.02275 29.7967 1.51872 30 2.10127 30C2.68382 30 3.17978 29.7967 3.58916 29.39L16.2779 16.7702C16.5419 16.5072 16.7283 16.2299 16.837 15.9384C16.9457 15.6468 17 15.3318 17 14.9935C17 14.6551 16.9457 14.3402 16.837 14.0486C16.7283 13.757 16.5419 13.4797 16.2779 13.2167L3.58916 0.59698C3.19813 0.208544 2.70664 0.0096453 2.11468 0.000285383C1.52319 -0.00860654 1.02275 0.190292 0.613369 0.59698C0.204456 1.00414 0 1.49741 0 2.07678C0 2.65616 0.204456 3.14943 0.613369 3.55659L12.1135 14.9935Z" fill="#111111"/>
</svg>
